<svg width="32" height="29" viewBox="0 0 32 29" fill="none" xmlns="http://www.w3.org/2000/svg">
<path d="M30.4 12.8352H27.2V3.23516H28.8V0.0351562H25.6H6.4H3.2V3.23516H4.8V12.8352H1.6C0.7152 12.8352 0 13.552 0 14.4352V25.6352V27.2352V28.8352H1.6H4.8H6.4H25.6H27.2H30.4H32V27.2352V25.6352V14.4352C32 13.552 31.2848 12.8352 30.4 12.8352ZM19.2 25.6352V19.2352H12.8V25.6352H8V3.23516H24V25.6352H19.2Z" fill="#6140B9"/>
<path d="M11.2002 6.43518H14.4002V9.63518H11.2002V6.43518ZM17.6002 6.43518H20.8002V9.63518H17.6002V6.43518ZM11.2002 12.8352H14.4002V16.0352H11.2002V12.8352ZM17.6002 12.8352H20.8002V16.0352H17.6002V12.8352Z" fill="#6140B9"/>
</svg>
